# xmcd
#
# Track frame offsets:
#	150
#	14527
#	27282
#	40852
#	54572
#	70480
#	85317
#	96617
#	109290
#	122192
#	135932
#	148597
#	163898
#	177255
#	216088
#	248430
#	266243
#	283165
#	298755
#	311255
#	326317
#
# Disc length: 4537 seconds
#
# Revision: 1
# Processed by: cddbd v1.5.2PL0 Copyright (c) Steve Scherf et al.
# Submitted via: EZCDAudioConverter 2.8.1.1
#
DISCID=4111b715
DTITLE=Jackson 5 - Skywriter and Get It Together
DYEAR=2001
DGENRE=R&B
TTITLE0=Skywriter
TTITLE1=Hallelujah Day
TTITLE2=The Boogie Man
TTITLE3=Touch
TTITLE4=Corner Of The Sky
TTITLE5=I Can't Quit Your Love
TTITLE6=Uppermost
TTITLE7=World Of Sunshine
TTITLE8=Ooh, I'd Love To Be With You
TTITLE9=You Made Me What I Am
TTITLE10=Get It Together
TTITLE11=Don't Say Good Bye Again
TTITLE12=Reflections
TTITLE13=Hum Along And Dance
TTITLE14=Mama I Got A Brand New Thing (Don't Say No)
TTITLE15=It's Too Late To Change The Time
TTITLE16=You Need Love Like I Do (Don't You)
TTITLE17=Dancing Machine
TTITLE18=Pride And Joy
TTITLE19=Love's Gone Bad
TTITLE20=Love Is The Thing You Need
EXTD=
EXTT0=
EXTT1=
EXTT2=
EXTT3=
EXTT4=
EXTT5=
EXTT6=
EXTT7=
EXTT8=
EXTT9=
EXTT10=
EXTT11=
EXTT12=
EXTT13=
EXTT14=
EXTT15=
EXTT16=
EXTT17=
EXTT18=
EXTT19=
EXTT20=
PLAYORDER=
